<svg width="29" height="29" viewBox="0 0 29 29" fill="none" xmlns="http://www.w3.org/2000/svg">
<circle cx="14.4776" cy="14.4776" r="14.4776" fill="white"/>
<path d="M19.4945 9.94845C18.5715 9.53222 17.5822 9.22457 16.5477 9.04963C16.5385 9.04786 16.5289 9.049 16.5204 9.05289C16.5118 9.05678 16.5047 9.06323 16.5 9.07135C16.3733 9.29394 16.2322 9.5841 16.1333 9.81333C15.036 9.64939 13.9205 9.64939 12.8233 9.81333C12.7131 9.55928 12.5889 9.31157 12.4511 9.07135C12.4464 9.06313 12.4394 9.05654 12.4309 9.05244C12.4224 9.04835 12.4128 9.04695 12.4035 9.04842C11.3695 9.22336 10.3802 9.53101 9.45666 9.94785C9.44872 9.95118 9.44198 9.95686 9.43736 9.96413C7.56009 12.7239 7.04554 15.4156 7.29829 18.0734C7.29899 18.0799 7.30102 18.0862 7.30423 18.0919C7.30744 18.0976 7.31179 18.1026 7.31699 18.1066C8.4127 18.9043 9.63482 19.512 10.9322 19.9042C10.9412 19.907 10.9509 19.907 10.9599 19.9042C10.969 19.9014 10.977 19.8959 10.9828 19.8885C11.2615 19.5145 11.5101 19.1194 11.7224 18.7044C11.7351 18.6803 11.723 18.6513 11.6977 18.6417C11.308 18.4949 10.9304 18.3178 10.5684 18.112C10.5619 18.1083 10.5564 18.103 10.5525 18.0967C10.5485 18.0903 10.5462 18.0831 10.5457 18.0756C10.5452 18.0681 10.5466 18.0607 10.5497 18.0539C10.5529 18.047 10.5576 18.0411 10.5636 18.0366C10.6396 17.9805 10.7156 17.922 10.788 17.8635C10.7945 17.8582 10.8024 17.8549 10.8107 17.8538C10.819 17.8527 10.8274 17.854 10.8351 17.8574C13.204 18.9216 15.7695 18.9216 18.1107 17.8574C18.1183 17.8538 18.1268 17.8524 18.1353 17.8533C18.1437 17.8543 18.1517 17.8576 18.1583 17.8629C18.2307 17.922 18.3061 17.9805 18.3827 18.0366C18.3887 18.041 18.3936 18.0469 18.3968 18.0536C18.4 18.0604 18.4015 18.0678 18.4012 18.0753C18.4008 18.0828 18.3986 18.09 18.3948 18.0964C18.3909 18.1028 18.3855 18.1082 18.3791 18.112C18.0184 18.3195 17.6431 18.4951 17.2492 18.641C17.2432 18.6432 17.2377 18.6467 17.2331 18.6512C17.2285 18.6557 17.2249 18.6611 17.2225 18.6671C17.2202 18.6731 17.2192 18.6795 17.2195 18.686C17.2198 18.6924 17.2215 18.6987 17.2245 18.7044C17.4417 19.1188 17.6902 19.5133 17.9635 19.8879C17.9691 19.8956 17.9771 19.9014 17.9861 19.9044C17.9952 19.9074 18.005 19.9076 18.0141 19.9048C19.3137 19.5137 20.5378 18.9057 21.6347 18.1066C21.6401 18.1028 21.6446 18.098 21.6479 18.0924C21.6512 18.0868 21.6533 18.0805 21.6541 18.074C21.9557 15.0011 21.1485 12.3312 19.5132 9.96534C19.5092 9.95765 19.5025 9.95166 19.4945 9.94845ZM12.0765 16.4549C11.3635 16.4549 10.7753 15.8101 10.7753 15.0192C10.7753 14.2278 11.352 13.5835 12.0765 13.5835C12.8064 13.5835 13.3891 14.2332 13.3777 15.0192C13.3777 15.8107 12.801 16.4549 12.0765 16.4549V16.4549ZM16.8873 16.4549C16.1737 16.4549 15.5861 15.8101 15.5861 15.0192C15.5861 14.2278 16.1622 13.5835 16.8873 13.5835C17.6172 13.5835 18.1999 14.2332 18.1885 15.0192C18.1885 15.8107 17.6178 16.4549 16.8873 16.4549V16.4549Z" fill="black"/>
</svg>
