<svg width="30" height="29" viewBox="0 0 30 29" fill="none" xmlns="http://www.w3.org/2000/svg">
<circle cx="15.3428" cy="14.4776" r="14.4776" fill="white"/>
<path d="M18.9627 8.32423C18.9627 8.22824 18.9246 8.13617 18.8567 8.0683C18.7888 8.00042 18.6967 7.96229 18.6007 7.96229H16.791C15.8798 7.91689 14.9876 8.23403 14.3094 8.84439C13.6312 9.45476 13.2222 10.3087 13.1716 11.2198V13.1742H11.3619C11.2659 13.1742 11.1739 13.2124 11.106 13.2802C11.0381 13.3481 11 13.4402 11 13.5362V15.4183C11 15.5143 11.0381 15.6063 11.106 15.6742C11.1739 15.7421 11.2659 15.7802 11.3619 15.7802H13.1716V20.6302C13.1716 20.7262 13.2098 20.8183 13.2777 20.8861C13.3455 20.954 13.4376 20.9921 13.5336 20.9921H15.7052C15.8012 20.9921 15.8933 20.954 15.9612 20.8861C16.029 20.8183 16.0672 20.7262 16.0672 20.6302V15.7802H17.9637C18.0442 15.7814 18.1228 15.7556 18.187 15.7071C18.2513 15.6586 18.2975 15.5901 18.3184 15.5124L18.8396 13.6303C18.854 13.5768 18.856 13.5207 18.8453 13.4664C18.8346 13.412 18.8116 13.3609 18.778 13.3168C18.7445 13.2728 18.7012 13.237 18.6517 13.2123C18.6021 13.1876 18.5475 13.1745 18.4922 13.1742H16.0672V11.2198C16.0852 11.0406 16.1693 10.8745 16.3032 10.7541C16.437 10.6336 16.611 10.5674 16.791 10.5683H18.6007C18.6967 10.5683 18.7888 10.5301 18.8567 10.4622C18.9246 10.3944 18.9627 10.3023 18.9627 10.2063V8.32423Z" fill="black"/>
</svg>
