<svg width="30" height="29" viewBox="0 0 30 29" fill="none" xmlns="http://www.w3.org/2000/svg">
<circle cx="15.3878" cy="14.4776" r="14.4776" fill="white"/>
<path d="M18.2907 8.04171C18.9505 8.07204 19.4066 8.169 19.828 8.33258C20.2276 8.48198 20.5893 8.7176 20.8875 9.02267C21.1926 9.32085 21.4282 9.68259 21.5776 10.0822C21.7412 10.5041 21.8381 10.9597 21.8684 11.6194C21.9058 12.4373 21.9102 12.7255 21.9102 14.5C21.9102 16.2745 21.9058 16.5627 21.8684 17.3806C21.8381 18.0403 21.7412 18.4964 21.5776 18.9184C21.4281 19.3178 21.1925 19.6793 20.8875 19.9773C20.5893 20.2824 20.2276 20.518 19.828 20.6674C19.406 20.831 18.9505 20.928 18.2907 20.9583C17.4728 20.9957 17.1852 21 15.4102 21C13.6351 21 13.3469 20.9957 12.5296 20.9583C11.8698 20.928 11.4137 20.831 10.9918 20.6674C10.5924 20.518 10.2308 20.2824 9.93282 19.9773C9.62775 19.6792 9.39214 19.3174 9.24274 18.9178C9.07916 18.4959 8.9822 18.0403 8.95186 17.3806C8.91449 16.5638 8.91016 16.2756 8.91016 14.5C8.91016 12.725 8.91449 12.4363 8.95186 11.6194C8.9822 10.9597 9.07916 10.5036 9.24274 10.0822C9.39214 9.68259 9.62775 9.32085 9.93282 9.02267C10.2308 8.71766 10.5924 8.48205 10.9918 8.33258C11.4143 8.169 11.8698 8.07204 12.5296 8.04171C13.3464 8.00433 13.6346 8 15.4102 8C17.1852 8 17.4739 8.00433 18.2907 8.04171V8.04171ZM15.4102 9.44463C13.6552 9.44463 13.3865 9.44842 12.5951 9.48471C12.093 9.50746 11.7918 9.57138 11.515 9.67917C11.2794 9.77125 11.1294 9.86875 10.9539 10.0437C10.7784 10.2192 10.6809 10.3693 10.5893 10.6049C10.4821 10.8811 10.4176 11.1828 10.3949 11.685C10.3586 12.4763 10.3548 12.745 10.3548 14.5C10.3548 16.255 10.3586 16.5237 10.3949 17.315C10.4176 17.8172 10.4815 18.1183 10.5893 18.3946C10.6814 18.6308 10.7789 18.7808 10.9539 18.9563C11.1294 19.1318 11.2794 19.2293 11.515 19.3208C11.7913 19.4281 12.093 19.4925 12.5951 19.5153C13.387 19.5516 13.6557 19.5554 15.4102 19.5554C17.1652 19.5554 17.4333 19.5516 18.2252 19.5153C18.7273 19.4925 19.0285 19.4286 19.3053 19.3208C19.5409 19.2288 19.6909 19.1313 19.8664 18.9563C20.0419 18.7808 20.1394 18.6308 20.231 18.3951C20.3382 18.1189 20.4027 17.8172 20.4254 17.315C20.4617 16.5231 20.4655 16.2545 20.4655 14.5C20.4655 12.7455 20.4617 12.4769 20.4254 11.685C20.4027 11.1828 20.3388 10.8817 20.231 10.6054C20.1544 10.3926 20.0296 10.2003 19.8664 10.0437C19.7098 9.88051 19.5176 9.75575 19.3047 9.67917C19.0285 9.57192 18.7268 9.50746 18.2247 9.48471C17.4333 9.44842 17.1646 9.44463 15.4096 9.44463H15.4102ZM15.4102 17.8703C14.5163 17.8703 13.6591 17.5152 13.027 16.8831C12.395 16.2511 12.0399 15.3938 12.0399 14.5C12.0399 13.6062 12.395 12.7489 13.027 12.1169C13.6591 11.4848 14.5163 11.1298 15.4102 11.1298C16.304 11.1298 17.1612 11.4848 17.7933 12.1169C18.4253 12.7489 18.7804 13.6062 18.7804 14.5C18.7804 15.3938 18.4253 16.2511 17.7933 16.8831C17.1612 17.5152 16.304 17.8703 15.4102 17.8703V17.8703ZM15.4102 16.4262C15.921 16.4262 16.4109 16.2232 16.7722 15.862C17.1334 15.5008 17.3363 15.0109 17.3363 14.5C17.3363 13.9891 17.1334 13.4992 16.7722 13.138C16.4109 12.7768 15.921 12.5738 15.4102 12.5738C14.8993 12.5738 14.4094 12.7768 14.0482 13.138C13.6869 13.4992 13.484 13.9891 13.484 14.5C13.484 15.0109 13.6869 15.5008 14.0482 15.862C14.4094 16.2232 14.8993 16.4262 15.4102 16.4262V16.4262ZM18.7804 11.8518C18.5888 11.8518 18.4051 11.7757 18.2697 11.6402C18.1342 11.5048 18.0581 11.321 18.0581 11.1295C18.0581 10.9379 18.1342 10.7542 18.2697 10.6187C18.4051 10.4833 18.5888 10.4072 18.7804 10.4072C18.972 10.4072 19.1557 10.4833 19.2912 10.6187C19.4266 10.7542 19.5027 10.9379 19.5027 11.1295C19.5027 11.321 19.4266 11.5048 19.2912 11.6402C19.1557 11.7757 18.972 11.8518 18.7804 11.8518Z" fill="black"/>
</svg>
