<svg width="30" height="29" viewBox="0 0 30 29" fill="none" xmlns="http://www.w3.org/2000/svg">
<circle cx="15.2979" cy="14.4776" r="14.4776" fill="white"/>
<path d="M20.5514 9.44379C20.5514 9.44379 21.7232 8.98684 21.6252 10.0965C21.5929 10.5534 21.3 12.1529 21.072 13.8827L20.2908 19.0072C20.2908 19.0072 20.2257 19.7579 19.6396 19.8885C19.0539 20.0188 18.175 19.4315 18.0121 19.3009C17.8818 19.2029 15.5708 17.734 14.757 17.0162C14.529 16.8201 14.2684 16.4286 14.7896 15.9717L18.2072 12.7076C18.5978 12.3161 18.9884 11.4022 17.3609 12.5118L12.8035 15.6125C12.8035 15.6125 12.2826 15.9391 11.3062 15.6453L9.1901 14.9923C9.1901 14.9923 8.40891 14.5028 9.74356 14.0133C12.9989 12.4793 17.0029 10.9127 20.5508 9.44379H20.5514Z" fill="black"/>
</svg>
