<svg width="30" height="29" viewBox="0 0 30 29" fill="none" xmlns="http://www.w3.org/2000/svg">
<circle cx="15.4327" cy="14.4776" r="14.4776" fill="white"/>
<path d="M22.4548 10.2173C21.9511 10.4405 21.41 10.5913 20.8412 10.6594C21.4281 10.3082 21.8673 9.75548 22.0766 9.10431C21.5252 9.43186 20.9216 9.66242 20.2922 9.78596C19.869 9.33406 19.3084 9.03453 18.6975 8.93388C18.0866 8.83323 17.4595 8.93709 16.9137 9.22933C16.3678 9.52157 15.9337 9.98585 15.6788 10.5501C15.4239 11.1143 15.3623 11.7469 15.5038 12.3497C14.3864 12.2936 13.2933 12.0032 12.2954 11.4973C11.2976 10.9914 10.4172 10.2813 9.71153 9.41317C9.47023 9.8294 9.33149 10.312 9.33149 10.8259C9.33122 11.2886 9.44516 11.7442 9.66319 12.1523C9.88123 12.5604 10.1966 12.9083 10.5814 13.1653C10.1352 13.1511 9.69878 13.0305 9.30857 12.8136V12.8498C9.30852 13.4987 9.53299 14.1277 9.94388 14.6299C10.3548 15.1322 10.9268 15.4768 11.5628 15.6054C11.1489 15.7174 10.7149 15.7339 10.2936 15.6536C10.4731 16.212 10.8227 16.7002 11.2934 17.0501C11.7642 17.3999 12.3325 17.5937 12.9189 17.6045C11.9235 18.3859 10.6941 18.8098 9.42861 18.8079C9.20444 18.808 8.98045 18.7949 8.75781 18.7687C10.0424 19.5947 11.5377 20.033 13.0649 20.0313C18.2346 20.0313 21.0608 15.7495 21.0608 12.036C21.0608 11.9154 21.0578 11.7935 21.0523 11.6729C21.602 11.2753 22.0766 10.783 22.4536 10.2191L22.4548 10.2173V10.2173Z" fill="black"/>
</svg>
